# xmcd
#
# Track frame offsets:
#	150
#	12266
#	28994
#	42289
#	56793
#	70174
#	92592
#	109743
#	127504
#
# Disc length: 1859 seconds
#
# Revision: 0
# Processed by: cddbd v1.4PL0 Copyright (c) Steve Scherf et al.
# Submitted via: dBpowerAMP V4.0
#
DISCID=6f074109
DTITLE=Bruce Larson - Let Your Flag Fly
DYEAR=2003
DGENRE=Country
TTITLE0=It's Only Make Believe
TTITLE1=Let Your Flag Fly
TTITLE2=Tappen Coulee Freeway
TTITLE3=Statue of a Fool
TTITLE4=Mean Women Blues
TTITLE5=That's My Job
TTITLE6=Broken Candy
TTITLE7=Stone Cold Heart
TTITLE8=The Greatest Love
EXTD=
EXTT0=
EXTT1=
EXTT2=
EXTT3=
EXTT4=
EXTT5=
EXTT6=
EXTT7=
EXTT8=
PLAYORDER=
